<?xml version="1.0" encoding="UTF-8"?>
<svg id="Layer_1" xmlns="http://www.w3.org/2000/svg" version="1.1" viewBox="0 0 1080 1080">
  <!-- Generator: Adobe Illustrator 30.2.1, SVG Export Plug-In . SVG Version: 2.1.1 Build 1)  -->
  <defs>
    <style>
      .st0 {
        fill: #fff;
        fill-rule: evenodd;
      }

      .st1, .st2 {
        fill: #647a4c;
      }

      .st2 {
        font-family: CanelaTrial-Regular, 'Canela Trial';
        font-size: 109.06px;
      }

      .st3 {
        fill: #c7aa58;
      }
    </style>
  </defs>
  <text class="st2" transform="translate(117.28 768.33)"><tspan x="0" y="0">Numeral Doctrrine</tspan></text>
  <g>
    <g>
      <path class="st1" d="M540,642.13c-47.41,0-91.99-18.46-125.51-51.99-33.52-33.53-51.99-78.1-51.99-125.51s18.46-91.99,51.99-125.51c33.53-33.53,78.1-51.99,125.51-51.99s91.99,18.46,125.51,51.99c33.53,33.53,51.99,78.1,51.99,125.51s-18.46,91.99-51.99,125.51c-33.53,33.52-78.1,51.99-125.51,51.99ZM540,297.18c-92.34,0-167.46,75.12-167.46,167.46s75.12,167.46,167.46,167.46,167.46-75.12,167.46-167.46-75.12-167.46-167.46-167.46Z"/>
      <path class="st1" d="M540,604.02c-76.86,0-139.39-62.53-139.39-139.39s62.53-139.39,139.39-139.39,139.39,62.53,139.39,139.39-62.53,139.39-139.39,139.39ZM540,330.65c-73.88,0-133.98,60.1-133.98,133.98s60.1,133.98,133.98,133.98,133.98-60.1,133.98-133.98-60.1-133.98-133.98-133.98Z"/>
      <path class="st1" d="M540,522.62c-31.97,0-57.99-26.01-57.99-57.99s26.01-57.99,57.99-57.99,57.99,26.01,57.99,57.99-26.01,57.99-57.99,57.99ZM540,412.05c-28.99,0-52.58,23.59-52.58,52.58s23.59,52.58,52.58,52.58,52.58-23.59,52.58-52.58-23.59-52.58-52.58-52.58Z"/>
      <path class="st1" d="M540,507.27c-23.51,0-42.63-19.13-42.63-42.63s19.13-42.63,42.63-42.63,42.63,19.13,42.63,42.63-19.13,42.63-42.63,42.63ZM540,427.41c-20.53,0-37.23,16.7-37.23,37.23s16.7,37.23,37.23,37.23,37.23-16.7,37.23-37.23-16.7-37.23-37.23-37.23Z"/>
      <path class="st1" d="M693.46,547.61c-1.69,0-3.34-.85-4.29-2.4l-153.46-250.43c-1.45-2.36-.71-5.45,1.66-6.9,2.36-1.45,5.45-.71,6.9,1.66l153.46,250.43c1.45,2.36.71,5.45-1.66,6.9-.82.5-1.72.74-2.62.74Z"/>
      <path class="st1" d="M540,351.69c-1.49,0-2.7-1.21-2.7-2.7v-56.83c0-1.49,1.21-2.7,2.7-2.7s2.7,1.21,2.7,2.7v56.83c0,1.49-1.21,2.7-2.7,2.7Z"/>
      <path class="st1" d="M614.82,505.35c-.41,0-.83-.09-1.22-.29l-74.82-38.01c-.91-.46-1.48-1.39-1.48-2.41v-77.58c0-1.49,1.21-2.7,2.7-2.7s2.7,1.21,2.7,2.7v75.92l73.34,37.26c1.33.68,1.86,2.3,1.19,3.63-.48.94-1.43,1.48-2.41,1.48Z"/>
      <path class="st1" d="M693.45,545.29c-.41,0-.83-.09-1.22-.29l-44.69-22.7c-1.33-.68-1.86-2.3-1.19-3.63.68-1.33,2.3-1.86,3.63-1.19l44.69,22.7c1.33.68,1.86,2.3,1.19,3.63-.48.94-1.43,1.48-2.41,1.48Z"/>
      <path class="st1" d="M693.45,546.83h-306.91c-2.35,0-4.25-1.9-4.25-4.25s1.9-4.25,4.25-4.25h306.91c2.35,0,4.25,1.9,4.25,4.25s-1.9,4.25-4.25,4.25Z"/>
      <path class="st1" d="M386.55,545.29c-.99,0-1.94-.54-2.41-1.48-.68-1.33-.15-2.96,1.19-3.63l44.2-22.45c1.33-.68,2.96-.15,3.63,1.19.68,1.33.15,2.96-1.19,3.63l-44.2,22.45c-.39.2-.81.29-1.22.29Z"/>
      <path class="st1" d="M464.69,505.59c-.99,0-1.94-.54-2.41-1.48-.68-1.33-.15-2.96,1.19-3.63l75.31-38.25c1.33-.68,2.96-.15,3.63,1.19.68,1.33.15,2.96-1.19,3.63l-75.31,38.25c-.39.2-.81.29-1.22.29Z"/>
      <path class="st1" d="M386.54,547.61c-.89,0-1.8-.24-2.62-.74-2.36-1.45-3.11-4.54-1.66-6.9l153.46-250.43c1.45-2.36,4.54-3.11,6.9-1.66,2.36,1.45,3.11,4.54,1.66,6.9l-153.46,250.43c-.95,1.55-2.6,2.4-4.29,2.4Z"/>
      <path class="st1" d="M540,604.02c-.49,0-.98-.13-1.42-.4l-122.07-75.13c-.8-.49-1.29-1.36-1.29-2.3v-123.11c0-1.49,1.21-2.7,2.7-2.7h243.86c1.49,0,2.7,1.21,2.7,2.7v123.67c0,.94-.49,1.81-1.29,2.31l-121.79,74.58c-.43.27-.92.4-1.41.4ZM420.63,524.68l119.37,73.47,119.08-72.92v-119.45h-238.45v118.9Z"/>
      <path class="st1" d="M540,604.02c-.94,0-1.81-.49-2.3-1.29l-122.07-198.24c-.78-1.27-.39-2.94.88-3.72l121.93-75.13c.87-.54,1.97-.54,2.84,0l121.93,75.13c1.27.78,1.67,2.45.89,3.72l-121.79,198.24c-.49.8-1.36,1.29-2.3,1.29h0ZM421.65,403.96l118.35,192.2,118.08-192.2-118.21-72.84-118.21,72.83Z"/>
      <path class="st1" d="M540,389.76c-11.99,0-21.74-9.75-21.74-21.74s9.75-21.74,21.74-21.74,21.74,9.75,21.74,21.74-9.75,21.74-21.74,21.74ZM540,351.69c-9.01,0-16.33,7.33-16.33,16.33s7.33,16.33,16.33,16.33,16.33-7.33,16.33-16.33-7.33-16.33-16.33-16.33Z"/>
      <path class="st1" d="M447.82,533.45c-11.99,0-21.74-9.75-21.74-21.74s9.75-21.74,21.74-21.74,21.74,9.75,21.74,21.74-9.75,21.74-21.74,21.74ZM447.82,495.38c-9.01,0-16.33,7.33-16.33,16.33s7.33,16.33,16.33,16.33,16.33-7.33,16.33-16.33-7.33-16.33-16.33-16.33Z"/>
      <path class="st1" d="M544.46,373.43c-3.66,0-6.63-2.97-6.63-6.63s2.97-6.63,6.63-6.63c2.23,0,4.21,1.11,5.41,2.8-1.84-3.59-5.56-6.05-9.87-6.05-6.12,0-11.09,4.96-11.09,11.09s4.96,11.09,11.09,11.09,11.09-4.96,11.09-11.09c0-.21-.02-.41-.03-.61-.31,3.38-3.14,6.02-6.6,6.02Z"/>
      <path class="st1" d="M631.56,533.45c-11.99,0-21.74-9.75-21.74-21.74s9.75-21.74,21.74-21.74,21.74,9.75,21.74,21.74-9.75,21.74-21.74,21.74ZM631.56,495.38c-9.01,0-16.33,7.33-16.33,16.33s7.33,16.33,16.33,16.33,16.33-7.33,16.33-16.33-7.33-16.33-16.33-16.33Z"/>
      <path class="st1" d="M631.56,524.79c-7.21,0-13.08-5.87-13.08-13.08s5.87-13.08,13.08-13.08,13.08,5.87,13.08,13.08-5.87,13.08-13.08,13.08ZM631.56,500.94c-5.94,0-10.76,4.83-10.76,10.76s4.83,10.77,10.76,10.77,10.77-4.83,10.77-10.77-4.83-10.76-10.77-10.76Z"/>
      <path class="st1" d="M635.75,511.71c0,2.31-1.87,4.18-4.18,4.18s-4.18-1.87-4.18-4.18,1.87-4.18,4.18-4.18,4.18,1.87,4.18,4.18Z"/>
      <g>
        <path class="st1" d="M445.83,519.19c-2.49,0-4.75-1.36-5.92-3.56-.84-1.58-1.02-3.39-.49-5.11.52-1.71,1.68-3.12,3.26-3.96.97-.51,2.05-.79,3.14-.79,2.49,0,4.75,1.36,5.92,3.56.84,1.58,1.02,3.39.49,5.11-.52,1.71-1.68,3.12-3.26,3.96-.97.51-2.05.79-3.14.79ZM445.83,508.1c-.72,0-1.41.17-2.05.51-1.03.55-1.79,1.47-2.13,2.59-.34,1.12-.23,2.31.32,3.34.76,1.44,2.25,2.33,3.88,2.33.72,0,1.41-.17,2.05-.51,1.03-.55,1.79-1.47,2.13-2.59.34-1.12.23-2.31-.32-3.34-.76-1.43-2.25-2.33-3.88-2.33Z"/>
        <path class="st1" d="M433.44,512.8s.21-.2.6-.5c.1-.07.2-.16.33-.24.14-.07.3-.13.47-.2.18-.07.37-.15.57-.23.21-.07.42-.08.65-.13.23-.03.47-.08.72-.08.25.01.51.04.78.06.28,0,.55.08.82.17.27.09.56.16.84.29.53.29,1.1.59,1.54,1.06.23.22.49.43.65.72l.28.4.14.2.07.1.03.05.02.03h0s0,.02,0,.02c.02.05-.05-.1.05.11.19.54.43.91.54,1.69.17.71.09,1.33.04,1.93-.04.3-.14.58-.22.86-.08.28-.17.54-.31.78-.13.23-.26.46-.39.68-.14.21-.32.38-.47.55-.16.16-.29.34-.46.46-.17.12-.34.23-.49.33-.15.1-.29.2-.42.27-.15.06-.28.11-.41.15-.49.17-.76.23-.76.23,0,0,.18-.24.49-.6.08-.09.16-.18.24-.29.07-.13.15-.25.23-.39.08-.13.16-.27.25-.42.08-.15.13-.33.21-.49.06-.17.16-.33.21-.52.04-.19.09-.38.13-.58.02-.1.06-.19.07-.29l.02-.31c0-.21.05-.41.04-.62-.03-.21-.04-.42-.05-.63,0-.11-.01-.21-.05-.29l-.07-.27c0-.3-.32-.89-.5-1.37.1.21.03.06.05.1h0s0-.01,0-.01v-.02s-.03-.03-.03-.03l-.05-.07-.09-.13-.17-.27c-.1-.19-.25-.34-.4-.5-.16-.14-.26-.35-.44-.45-.17-.13-.33-.26-.49-.4-.17-.13-.36-.2-.53-.31l-.26-.16c-.09-.05-.19-.07-.28-.1-.19-.07-.37-.14-.55-.21-.18-.06-.37-.07-.55-.12-.18-.03-.36-.09-.52-.1-.16,0-.32-.02-.47-.03-.15-.01-.3-.01-.44-.03-.15.01-.28.03-.4.05-.49.06-.78.07-.78.07Z"/>
        <rect class="st1" x="450.18" y="505.76" width="9.32" height="3.86" transform="translate(-185.18 273.16) rotate(-28.02)"/>
        <path class="st1" d="M458.17,512.71c-.41,0-.82-.22-1.02-.61l-4.67-8.77c-.3-.56-.09-1.27.48-1.57.57-.3,1.27-.09,1.57.48l4.67,8.77c.3.56.09,1.27-.48,1.57-.17.09-.36.14-.54.14Z"/>
      </g>
      <g>
        <path class="st1" d="M675.14,398.42c-1.17,0-2.32-.31-3.34-.89-1.55-.89-2.66-2.34-3.13-4.06-.47-1.73-.23-3.54.66-5.09,1.19-2.07,3.42-3.36,5.81-3.36,1.17,0,2.32.31,3.34.89,1.55.89,2.66,2.34,3.13,4.07.47,1.73.23,3.53-.66,5.09-1.19,2.07-3.42,3.36-5.81,3.36ZM675.15,387.33c-1.57,0-3.03.84-3.81,2.2-.58,1.02-.74,2.2-.43,3.33.31,1.13,1.03,2.08,2.05,2.66.67.38,1.42.59,2.18.59,1.57,0,3.03-.84,3.81-2.2.58-1.02.74-2.2.43-3.33-.3-1.13-1.03-2.08-2.05-2.66-.67-.38-1.42-.59-2.18-.59Z"/>
        <path class="st1" d="M683.89,405.97c-.37,0-.74-.18-.96-.52l-5.67-8.49c-.36-.53-.21-1.25.32-1.61.53-.36,1.25-.21,1.61.32l5.67,8.49c.36.53.21,1.25-.32,1.61-.2.13-.42.2-.64.2Z"/>
        <path class="st1" d="M684.16,406.37c-.07,0-.13,0-.2-.02l-5.27-.91c-.63-.11-1.05-.71-.94-1.34.11-.63.71-1.05,1.34-.94l5.27.92c.63.11,1.05.71.94,1.34-.1.56-.59.96-1.14.96Z"/>
        <path class="st1" d="M684.16,406.37c-.08,0-.17,0-.26-.03-.62-.14-1.02-.76-.88-1.38l1.17-5.22c.14-.62.76-1.02,1.38-.88.62.14,1.02.76.88,1.38l-1.17,5.22c-.12.54-.6.91-1.13.91Z"/>
      </g>
      <g>
        <polygon class="st1" points="399.9 387.76 403.72 395.31 412.18 395.74 404.62 399.56 404.2 408.02 400.37 400.46 391.92 400.04 399.47 396.22 399.9 387.76"/>
        <polygon class="st1" points="406.27 391.39 404.3 397.41 408.55 402.11 402.52 400.14 397.82 404.39 399.8 398.37 395.54 393.66 401.57 395.64 406.27 391.39"/>
      </g>
      <g>
        <rect class="st1" x="538.45" y="608.99" width="3.09" height="18.05"/>
        <path class="st1" d="M544.53,613.88h-9.05c-.64,0-1.16-.52-1.16-1.16s.52-1.16,1.16-1.16h9.05c.64,0,1.16.52,1.16,1.16s-.52,1.16-1.16,1.16Z"/>
        <path class="st1" d="M546.79,628.2c-.64,0-1.16-.52-1.16-1.16v-4.56c0-3.07-2.5-5.56-5.56-5.56h-.14c-3.07,0-5.56,2.5-5.56,5.56v4.56c0,.64-.52,1.16-1.16,1.16s-1.16-.52-1.16-1.16v-4.56c0-4.35,3.54-7.88,7.88-7.88h.14c4.35,0,7.88,3.54,7.88,7.88v4.56c0,.64-.52,1.16-1.16,1.16Z"/>
        <g>
          <path class="st1" d="M540,628.9c-.33,0-.66-.14-.89-.42l-1.67-2.02c-.41-.49-.34-1.22.15-1.63.49-.41,1.22-.34,1.63.15l1.67,2.02c.41.49.34,1.22-.15,1.63-.22.18-.48.27-.74.27Z"/>
          <path class="st1" d="M540,628.9c-.26,0-.52-.09-.74-.27-.49-.41-.56-1.14-.15-1.63l1.67-2.02c.41-.49,1.14-.56,1.63-.15.49.41.56,1.14.15,1.63l-1.67,2.02c-.23.28-.56.42-.89.42Z"/>
        </g>
        <g>
          <path class="st1" d="M546.79,628.9c-.33,0-.66-.14-.89-.42l-1.67-2.02c-.41-.49-.34-1.22.15-1.63.49-.41,1.22-.34,1.63.15l1.67,2.02c.41.49.34,1.22-.15,1.63-.22.18-.48.27-.74.27Z"/>
          <path class="st1" d="M546.79,628.9c-.26,0-.52-.09-.74-.27-.49-.41-.56-1.14-.15-1.63l1.67-2.02c.41-.49,1.14-.56,1.63-.15.49.41.56,1.14.15,1.63l-1.67,2.02c-.23.28-.56.42-.89.42Z"/>
        </g>
        <g>
          <path class="st1" d="M533.21,628.9c-.33,0-.66-.14-.89-.42l-1.67-2.02c-.41-.49-.34-1.22.15-1.63.49-.41,1.22-.34,1.63.15l1.67,2.02c.41.49.34,1.22-.15,1.63-.22.18-.48.27-.74.27Z"/>
          <path class="st1" d="M533.21,628.9c-.26,0-.52-.09-.74-.27-.49-.41-.56-1.14-.15-1.63l1.67-2.02c.41-.49,1.14-.56,1.63-.15.49.41.56,1.14.15,1.63l-1.67,2.02c-.23.28-.56.42-.89.42Z"/>
        </g>
      </g>
    </g>
    <circle class="st3" cx="540" cy="464.63" r="113.84"/>
    <g>
      <g>
        <path class="st0" d="M617.61,388c16.33,18.68,26.38,42.99,26.38,69.85,0,30.87-13.05,58.42-34.09,77.84,4.91-10.32,7.71-21.53,7.71-33.68v-114.02Z"/>
        <path class="st0" d="M466.02,382.85v116.65c-2.56,38.74,35.28,72.86,75.66,72.86,5.83,0,11.46-.47,17.05-1.88-6.52,1.88-13.06,3.04-20.08,2.81-39.01-1.4-68.65-22.67-85.94-51.19-27.09-44.37-24.05-102.1,13.31-139.25h0Z"/>
        <path class="st0" d="M586.74,519.09c-5.37,17.04-17.02,29.93-42.93,30.14-29.43.2-46.72-22.65-46.72-50.22v-56.58l89.64,76.67Z"/>
        <path class="st0" d="M490.78,430.12l88.29,75.7c3.51,3.03,6.79,6.1,10.51,8.91,2.57,2.1,5.17,4.23,7.97,5.83,6.28,4,12.36-.47,12.59-7.42l1.86-114.32c0-4.9-4.42-8.86-9.31-8.86s-8.88,4.2-8.88,8.86v90.93l-104.41-95.36c-3.49-3.27-8.64-5.38-13.09-2.34-2.31,1.64-3.72,4.69-3.72,7.49v114.28c0,5.15,4.2,9.34,9.34,9.34s8.86-4.42,8.86-9.34v-83.68Z"/>
        <path class="st0" d="M497.79,395.65c5.37-17.07,17.06-29.92,42.96-30.14,29.43-.24,46.7,22.66,46.7,50.22l-.2,61.71-89.46-81.79Z"/>
      </g>
      <path class="st1" d="M588.26,498.62c-.56-2.56-3.61-4.03-6.45-4.67-4-.81-8-1.56-12-2.22.63-.16,1.07-.53,1.33-1.11-.53-.9-1.27-1.57-2.22-2-2.77.15-5.43.82-8,2-.87-.65-1.68-1.39-2.45-2.22-3.71-5.2-5.19-10.97-4.45-17.34,1.48-4.14,2.96-8.29,4.45-12.45.15-2.07.3-4.15.44-6.22,5.82-8.42,9.08-17.76,9.78-28.01.58-2.85.13-5.52-1.33-8-5.65-5.5-11.43-10.83-17.34-16-.68-1.3-1.27-2.63-1.78-4-.57-3.01-1.31-5.97-2.22-8.89-.15-.75-.6-1.19-1.33-1.33-.9.45-1.49,1.19-1.78,2.22-.57,4.18-1.76,8.19-3.56,12-5.75,5.01-11.38,10.2-16.89,15.56-.83,1.06-1.42,2.25-1.78,3.56-.04,12.3,3.37,23.56,10.22,33.79.09,2.55.39,5.07.89,7.56,5.67,10.44,4.86,20.29-2.45,29.56-2.03.12-3.96-.33-5.78-1.33-1.33-.3-2.67-.3-4,0-1.19.89-1.19,1.78,0,2.67-4.37.54-8.67,1.43-12.89,2.67-3.67,1.36-5.38,3.95-5.11,7.78,1.8,3.43,4.69,5.13,8.67,5.11,14.27.09,28.6-2.56,34.23-5.11,7.16,3.06,18.57,4.67,25.34,5.11,4.97.57,9.86.12,14.67-1.33,3.23-1.45,4.49-3.89,3.78-7.34ZM550.48,434.16c2.16-1.64,3.27-3.86,3.33-6.67.17-3.87-1.24-6.98-4.22-9.34-.54-1.87-1.8-2.98-3.78-3.33-2.19-.61-4.05-.09-5.56,1.56-.09.78-.31,1.52-.67,2.22-1.37.85-2.33,2.04-2.89,3.56-2.08,4.59-1.34,8.59,2.22,12,1.91,2.97,1.98,5.93.22,8.89-.85.51-1.74.58-2.67.22-2.92-2.21-4.77-5.1-5.56-8.67-.75-3.59-1.64-7.15-2.67-10.67-.35-1.39-.2-2.73.44-4,4.32-4.76,8.47-9.65,12.45-14.67,1.43-2.09,2.54-4.31,3.33-6.67,1.32,2.64,2.88,5.16,4.67,7.56,4.11,4.81,8.11,9.7,12,14.67-.38,6.13-1.71,12.06-4,17.78-1.21,3-3.36,4.56-6.45,4.67-2.29-2.95-2.37-5.99-.22-9.11Z"/>
    </g>
  </g>
</svg>