<svg width="1261" height="1261" viewBox="0 0 1261 1261" fill="none" xmlns="http://www.w3.org/2000/svg">
<path d="M630.5 1261C462.094 1261 303.741 1195.43 184.674 1076.33C65.6075 957.223 0 798.906 0 630.5C0 462.094 65.572 303.741 184.674 184.674C303.777 65.572 462.094 0 630.5 0C798.906 0 957.259 65.572 1076.33 184.674C1195.43 303.777 1261 462.094 1261 630.5C1261 798.906 1195.43 957.259 1076.33 1076.33C957.223 1195.39 798.906 1261 630.5 1261ZM630.5 35.6987C302.498 35.6987 35.6632 302.533 35.6632 630.536C35.6632 958.538 302.498 1225.37 630.5 1225.37C958.502 1225.37 1225.34 958.538 1225.34 630.536C1225.34 302.533 958.502 35.6987 630.5 35.6987Z" fill="white"/>
<path d="M630.5 1125.63C357.484 1125.63 135.371 903.515 135.371 630.5C135.371 357.485 357.484 135.371 630.5 135.371C903.515 135.371 1125.63 357.485 1125.63 630.5C1125.63 903.515 903.515 1125.63 630.5 1125.63ZM630.5 154.588C368.07 154.588 154.588 368.07 154.588 630.5C154.588 892.93 368.07 1106.41 630.5 1106.41C892.93 1106.41 1106.41 892.93 1106.41 630.5C1106.41 368.07 892.93 154.588 630.5 154.588Z" fill="white"/>
<path d="M630.5 836.487C516.939 836.487 424.513 744.097 424.513 630.5C424.513 516.903 516.903 424.513 630.5 424.513C744.096 424.513 836.487 516.903 836.487 630.5C836.487 744.097 744.096 836.487 630.5 836.487ZM630.5 443.73C527.524 443.73 443.73 527.524 443.73 630.5C443.73 733.476 527.524 817.27 630.5 817.27C733.476 817.27 817.27 733.476 817.27 630.5C817.27 527.524 733.476 443.73 630.5 443.73Z" fill="#647A4C"/>
<path d="M630.5 781.962C546.99 781.962 479.073 714.01 479.073 630.536C479.073 547.061 547.025 479.109 630.5 479.109C713.975 479.109 781.927 547.061 781.927 630.536C781.927 714.01 713.975 781.962 630.5 781.962ZM630.5 498.29C557.575 498.29 498.255 557.611 498.255 630.536C498.255 703.46 557.575 762.781 630.5 762.781C703.425 762.781 762.745 703.46 762.745 630.536C762.745 557.611 703.425 498.29 630.5 498.29Z" fill="#647A4C"/>
<path d="M1175.61 925.254C1169.6 925.254 1163.74 922.235 1160.37 916.73L615.262 27.1739C610.111 18.7909 612.739 7.81493 621.158 2.66436C629.541 -2.4862 640.517 0.142376 645.668 8.56088L1190.77 898.116C1195.93 906.499 1193.3 917.475 1184.88 922.626C1181.97 924.402 1178.77 925.254 1175.57 925.254H1175.61Z" fill="white"/>
<path d="M630.5 229.324C625.208 229.324 620.909 225.026 620.909 219.734V17.867C620.909 12.5743 625.208 8.27625 630.5 8.27625C635.793 8.27625 640.091 12.5743 640.091 17.867V219.734C640.091 225.026 635.793 229.324 630.5 229.324Z" fill="white"/>
<path d="M896.269 775.142C894.813 775.142 893.321 774.822 891.936 774.112L626.167 639.096C622.934 637.462 620.909 634.159 620.909 630.536V354.963C620.909 349.67 625.208 345.372 630.5 345.372C635.793 345.372 640.091 349.67 640.091 354.963V624.639L900.603 756.991C905.327 759.406 907.21 765.161 904.83 769.885C903.125 773.224 899.75 775.142 896.269 775.142Z" fill="#647A4C"/>
<path d="M1175.57 917.013C1174.12 917.013 1172.62 916.694 1171.24 915.983L1012.49 835.35C1007.77 832.935 1005.89 827.18 1008.27 822.456C1010.68 817.732 1016.44 815.849 1021.16 818.229L1179.91 898.862C1184.63 901.278 1186.51 907.032 1184.13 911.756C1182.43 915.095 1179.05 917.013 1175.57 917.013Z" fill="white"/>
<path d="M1175.57 922.483H85.3929C77.0454 922.483 70.2964 915.734 70.2964 907.387C70.2964 899.04 77.0454 892.291 85.3929 892.291H1175.57C1183.92 892.291 1190.67 899.04 1190.67 907.387C1190.67 915.734 1183.92 922.483 1175.57 922.483Z" fill="white"/>
<path d="M85.4285 917.013C81.9119 917.013 78.5375 915.095 76.868 911.756C74.4525 907.032 76.335 901.242 81.0949 898.862L238.098 819.117C242.823 816.702 248.613 818.584 250.992 823.344C253.408 828.069 251.525 833.859 246.765 836.238L89.762 915.983C88.3767 916.694 86.8848 917.013 85.4285 917.013Z" fill="white"/>
<path d="M362.991 775.994C359.474 775.994 356.099 774.076 354.43 770.737C352.015 766.013 353.897 760.223 358.657 757.843L626.167 621.975C630.891 619.559 636.681 621.442 639.061 626.202C641.476 630.926 639.593 636.716 634.834 639.096L367.324 774.964C365.939 775.675 364.447 775.994 362.991 775.994Z" fill="#647A4C"/>
<path d="M85.393 925.254C82.2316 925.254 78.9992 924.402 76.0865 922.626C67.7035 917.475 65.0394 906.499 70.19 898.116L615.297 8.56072C620.448 0.177734 631.424 -2.48636 639.807 2.6642C648.19 7.81476 650.854 18.7908 645.703 27.1738L100.596 916.729C97.2215 922.235 91.3605 925.254 85.3574 925.254H85.393Z" fill="white"/>
<path d="M630.5 1125.63C628.759 1125.63 627.019 1125.17 625.456 1124.21L191.85 857.338C189.008 855.597 187.267 852.507 187.267 849.168V411.867C187.267 406.575 191.565 402.277 196.858 402.277H1063.08C1068.37 402.277 1072.67 406.575 1072.67 411.867V851.157C1072.67 854.496 1070.93 857.586 1068.08 859.363L635.473 1124.28C633.946 1125.24 632.205 1125.7 630.464 1125.7L630.5 1125.63ZM206.484 843.804L630.5 1104.78L1053.49 845.758V421.458H206.484V843.804Z" fill="white"/>
<path d="M630.5 1125.63C627.161 1125.63 624.071 1123.89 622.33 1121.05L188.724 416.876C185.953 412.365 187.338 406.433 191.85 403.662L624.959 136.792C628.049 134.874 631.956 134.874 635.047 136.792L1068.16 403.662C1072.67 406.433 1074.09 412.365 1071.32 416.876L638.705 1121.05C636.965 1123.89 633.874 1125.63 630.535 1125.63H630.5ZM210.107 414.993L630.5 1097.71L1049.93 414.993L630.038 156.257L210.143 414.958L210.107 414.993Z" fill="white"/>
<path d="M630.5 364.553C587.91 364.553 553.277 329.92 553.277 287.33C553.277 244.741 587.91 210.108 630.5 210.108C673.09 210.108 707.723 244.741 707.723 287.33C707.723 329.92 673.09 364.553 630.5 364.553ZM630.5 229.324C598.495 229.324 572.494 255.361 572.494 287.33C572.494 319.299 598.531 345.336 630.5 345.336C662.469 345.336 688.506 319.299 688.506 287.33C688.506 255.361 662.469 229.324 630.5 229.324Z" fill="white"/>
<path d="M303.066 874.956C260.476 874.956 225.843 840.323 225.843 797.733C225.843 755.144 260.476 720.51 303.066 720.51C345.656 720.51 380.289 755.144 380.289 797.733C380.289 840.323 345.656 874.956 303.066 874.956ZM303.066 739.727C271.062 739.727 245.06 765.764 245.06 797.733C245.06 829.702 271.097 855.739 303.066 855.739C335.035 855.739 361.072 829.702 361.072 797.733C361.072 765.764 335.035 739.727 303.066 739.727Z" fill="white"/>
<path d="M646.342 306.547C633.341 306.547 622.792 295.998 622.792 282.997C622.792 269.996 633.341 259.446 646.342 259.446C654.263 259.446 661.297 263.389 665.559 269.392C659.023 256.64 645.809 247.902 630.5 247.902C608.761 247.902 591.107 265.521 591.107 287.295C591.107 309.069 608.725 326.688 630.5 326.688C652.274 326.688 669.893 309.069 669.893 287.295C669.893 286.549 669.822 285.839 669.786 285.128C668.685 297.134 658.633 306.512 646.342 306.512V306.547Z" fill="#647A4C"/>
<path d="M955.732 874.956C913.142 874.956 878.509 840.323 878.509 797.733C878.509 755.144 913.142 720.51 955.732 720.51C998.322 720.51 1032.95 755.144 1032.95 797.733C1032.95 840.323 998.322 874.956 955.732 874.956ZM955.732 739.727C923.727 739.727 897.726 765.764 897.726 797.733C897.726 829.702 923.763 855.739 955.732 855.739C987.701 855.739 1013.74 829.702 1013.74 797.733C1013.74 765.764 987.701 739.727 955.732 739.727Z" fill="white"/>
<path d="M955.731 844.195C930.121 844.195 909.27 823.344 909.27 797.733C909.27 772.123 930.121 751.272 955.731 751.272C981.342 751.272 1002.19 772.123 1002.19 797.733C1002.19 823.344 981.342 844.195 955.731 844.195ZM955.731 759.477C934.632 759.477 917.511 776.634 917.511 797.698C917.511 818.762 934.667 835.954 955.731 835.954C976.795 835.954 993.988 818.798 993.988 797.698C993.988 776.598 976.831 759.477 955.731 759.477Z" fill="white"/>
<path d="M970.615 797.734C970.615 805.939 963.972 812.581 955.767 812.581C947.562 812.581 940.919 805.939 940.919 797.734C940.919 789.528 947.562 782.886 955.767 782.886C963.972 782.886 970.615 789.528 970.615 797.734Z" fill="#647A4C"/>
<path d="M295.997 824.303C287.152 824.303 279.125 819.472 274.969 811.657C271.985 806.045 271.346 799.616 273.228 793.506C275.075 787.432 279.196 782.424 284.808 779.44C288.254 777.628 292.09 776.634 295.962 776.634C304.806 776.634 312.834 781.464 316.99 789.279C319.974 794.891 320.613 801.321 318.731 807.43C316.884 813.505 312.763 818.513 307.151 821.497C303.705 823.308 299.869 824.303 295.997 824.303ZM295.997 784.91C293.44 784.91 290.989 785.514 288.715 786.722C285.057 788.675 282.357 791.943 281.149 795.922C279.942 799.9 280.332 804.127 282.286 807.786C284.986 812.901 290.278 816.062 296.068 816.062C298.626 816.062 301.077 815.458 303.35 814.25C307.009 812.297 309.708 809.029 310.916 805.051C312.124 801.072 311.733 796.845 309.779 793.186C307.08 788.107 301.787 784.91 295.997 784.91Z" fill="white"/>
<path d="M251.987 801.605C251.987 801.605 252.733 800.895 254.118 799.829C254.473 799.581 254.828 799.261 255.29 798.977C255.787 798.728 256.356 798.515 256.96 798.266C257.599 798.018 258.274 797.734 258.984 797.449C259.73 797.201 260.476 797.165 261.293 796.988C262.11 796.881 262.963 796.703 263.851 796.703C264.739 796.739 265.662 796.846 266.621 796.917C267.616 796.917 268.575 797.201 269.534 797.52C270.493 797.84 271.523 798.089 272.518 798.551C274.4 799.581 276.425 800.646 277.988 802.316C278.805 803.097 279.729 803.843 280.297 804.873L281.292 806.294L281.789 807.005L282.037 807.36L282.144 807.537L282.215 807.644V807.715C282.286 807.893 282.037 807.36 282.393 808.106C283.068 810.024 283.92 811.338 284.311 814.109C284.915 816.631 284.63 818.833 284.453 820.964C284.311 822.03 283.956 823.025 283.671 824.019C283.387 825.014 283.068 825.937 282.57 826.79C282.108 827.607 281.647 828.424 281.185 829.205C280.688 829.951 280.048 830.555 279.515 831.159C278.947 831.727 278.485 832.367 277.882 832.793C277.278 833.219 276.674 833.61 276.141 833.965C275.608 834.32 275.111 834.676 274.649 834.924C274.116 835.137 273.654 835.315 273.193 835.457C271.452 836.061 270.493 836.274 270.493 836.274C270.493 836.274 271.133 835.422 272.234 834.143C272.518 833.823 272.802 833.503 273.086 833.113C273.335 832.651 273.619 832.225 273.903 831.727C274.187 831.266 274.471 830.768 274.791 830.235C275.075 829.703 275.253 829.063 275.537 828.495C275.75 827.891 276.105 827.323 276.283 826.648C276.425 825.973 276.603 825.298 276.745 824.588C276.816 824.232 276.958 823.913 276.993 823.557L277.064 822.456C277.064 821.71 277.242 821 277.207 820.254C277.1 819.508 277.064 818.762 277.029 818.016C277.029 817.625 276.993 817.27 276.851 816.986L276.603 816.027C276.603 814.961 275.466 812.866 274.827 811.161C275.182 811.906 274.933 811.374 275.004 811.516V811.48V811.409L274.898 811.303L274.72 811.054L274.4 810.592L273.796 809.633C273.441 808.958 272.908 808.425 272.376 807.857C271.807 807.36 271.452 806.614 270.813 806.259C270.209 805.797 269.641 805.335 269.072 804.838C268.468 804.376 267.793 804.127 267.19 803.737L266.266 803.168C265.946 802.991 265.591 802.92 265.271 802.813C264.597 802.564 263.957 802.316 263.318 802.067C262.678 801.854 262.003 801.818 261.364 801.641C260.725 801.534 260.085 801.321 259.517 801.286C258.949 801.286 258.38 801.215 257.848 801.179C257.315 801.144 256.782 801.144 256.285 801.073C255.752 801.108 255.29 801.179 254.864 801.25C253.123 801.463 252.093 801.499 252.093 801.499L251.987 801.605Z" fill="white"/>
<path d="M339.421 769.54L310.196 785.092L316.637 797.196L345.863 781.644L339.421 769.54Z" fill="white"/>
<path d="M339.83 801.286C338.374 801.286 336.917 800.504 336.207 799.119L319.619 767.967C318.553 765.977 319.299 763.456 321.324 762.39C323.348 761.324 325.835 762.07 326.9 764.095L343.489 795.247C344.555 797.236 343.809 799.758 341.784 800.824C341.18 801.143 340.505 801.321 339.866 801.321L339.83 801.286Z" fill="white"/>
<path d="M1110.53 395.315C1106.38 395.315 1102.29 394.213 1098.67 392.153C1093.16 388.992 1089.22 383.841 1087.55 377.732C1085.88 371.587 1086.73 365.157 1089.89 359.651C1094.12 352.299 1102.04 347.716 1110.53 347.716C1114.69 347.716 1118.77 348.818 1122.4 350.878C1127.9 354.039 1131.85 359.19 1133.51 365.335C1135.18 371.48 1134.33 377.874 1131.17 383.415C1126.94 390.768 1119.02 395.35 1110.53 395.35V395.315ZM1110.57 355.922C1104.99 355.922 1099.81 358.905 1097.03 363.736C1094.97 367.36 1094.41 371.551 1095.51 375.565C1096.61 379.579 1099.17 382.953 1102.79 385.013C1105.17 386.363 1107.83 387.109 1110.53 387.109C1116.11 387.109 1121.3 384.126 1124.07 379.295C1126.13 375.671 1126.69 371.48 1125.59 367.466C1124.53 363.452 1121.93 360.078 1118.31 358.018C1115.93 356.668 1113.27 355.922 1110.57 355.922Z" fill="white"/>
<path d="M1141.61 422.133C1140.3 422.133 1138.98 421.494 1138.2 420.286L1118.06 390.129C1116.78 388.246 1117.32 385.688 1119.2 384.41C1121.08 383.131 1123.64 383.664 1124.92 385.546L1145.06 415.704C1146.34 417.586 1145.8 420.144 1143.92 421.423C1143.21 421.884 1142.43 422.133 1141.65 422.133H1141.61Z" fill="white"/>
<path d="M1142.57 423.554C1142.32 423.554 1142.11 423.554 1141.86 423.483L1123.14 420.251C1120.9 419.86 1119.41 417.729 1119.8 415.491C1120.19 413.253 1122.33 411.761 1124.56 412.152L1143.28 415.42C1145.52 415.81 1147.01 417.942 1146.62 420.18C1146.27 422.169 1144.53 423.59 1142.57 423.59V423.554Z" fill="white"/>
<path d="M1142.57 423.554C1142.29 423.554 1141.97 423.554 1141.65 423.447C1139.45 422.95 1138.03 420.748 1138.52 418.545L1142.68 400.003C1143.18 397.801 1145.38 396.38 1147.58 396.878C1149.78 397.375 1151.2 399.577 1150.71 401.779L1146.55 420.321C1146.12 422.24 1144.42 423.554 1142.54 423.554H1142.57Z" fill="white"/>
<path d="M132.849 357.449L146.418 384.268L176.469 385.795L149.615 399.364L148.123 429.415L134.519 402.561L104.503 401.069L131.322 387.5L132.849 357.449Z" fill="white"/>
<path d="M155.476 370.343L148.478 391.727L163.575 408.422L142.156 401.424L125.461 416.521L132.494 395.137L117.362 378.407L138.781 385.44L155.476 370.343Z" fill="white"/>
<path d="M635.971 1143.28H624.995V1207.4H635.971V1143.28Z" fill="white"/>
<path d="M646.591 1160.65H614.445C612.171 1160.65 610.324 1158.81 610.324 1156.53C610.324 1154.26 612.171 1152.41 614.445 1152.41H646.591C648.865 1152.41 650.712 1154.26 650.712 1156.53C650.712 1158.81 648.865 1160.65 646.591 1160.65Z" fill="white"/>
<path d="M654.619 1211.52C652.346 1211.52 650.499 1209.67 650.499 1207.4V1191.2C650.499 1180.3 641.618 1171.45 630.749 1171.45H630.252C619.347 1171.45 610.502 1180.33 610.502 1191.2V1207.4C610.502 1209.67 608.655 1211.52 606.382 1211.52C604.108 1211.52 602.261 1209.67 602.261 1207.4V1191.2C602.261 1175.75 614.835 1163.21 630.252 1163.21H630.749C646.201 1163.21 658.74 1175.78 658.74 1191.2V1207.4C658.74 1209.67 656.892 1211.52 654.619 1211.52Z" fill="white"/>
<path d="M630.5 1214.01C629.328 1214.01 628.156 1213.51 627.339 1212.51L621.407 1205.34C619.951 1203.6 620.199 1201 621.94 1199.55C623.68 1198.09 626.273 1198.34 627.73 1200.08L633.662 1207.26C635.118 1209 634.87 1211.59 633.129 1213.05C632.348 1213.69 631.424 1214.01 630.5 1214.01Z" fill="white"/>
<path d="M630.5 1214.01C629.577 1214.01 628.653 1213.69 627.872 1213.05C626.131 1211.59 625.882 1209 627.339 1207.26L633.271 1200.08C634.727 1198.34 637.32 1198.09 639.061 1199.55C640.801 1201 641.05 1203.6 639.594 1205.34L633.662 1212.51C632.845 1213.51 631.672 1214.01 630.5 1214.01Z" fill="white"/>
<path d="M654.619 1214.01C653.447 1214.01 652.275 1213.51 651.458 1212.51L645.526 1205.34C644.069 1203.6 644.318 1201 646.059 1199.55C647.799 1198.09 650.392 1198.34 651.849 1200.08L657.781 1207.26C659.237 1209 658.988 1211.59 657.248 1213.05C656.466 1213.69 655.543 1214.01 654.619 1214.01Z" fill="white"/>
<path d="M654.619 1214.01C653.696 1214.01 652.772 1213.69 651.991 1213.05C650.25 1211.59 650.002 1209 651.458 1207.26L657.39 1200.08C658.846 1198.34 661.439 1198.09 663.18 1199.55C664.92 1201 665.169 1203.6 663.713 1205.34L657.781 1212.51C656.964 1213.51 655.791 1214.01 654.619 1214.01Z" fill="white"/>
<path d="M606.382 1214.01C605.209 1214.01 604.037 1213.51 603.22 1212.51L597.288 1205.34C595.832 1203.6 596.08 1201 597.821 1199.55C599.561 1198.09 602.155 1198.34 603.611 1200.08L609.543 1207.26C610.999 1209 610.751 1211.59 609.01 1213.05C608.229 1213.69 607.305 1214.01 606.382 1214.01Z" fill="white"/>
<path d="M606.381 1214.01C605.458 1214.01 604.534 1213.69 603.753 1213.05C602.012 1211.59 601.764 1209 603.22 1207.26L609.152 1200.08C610.608 1198.34 613.201 1198.09 614.942 1199.55C616.682 1201 616.931 1203.6 615.475 1205.34L609.543 1212.51C608.726 1213.51 607.554 1214.01 606.381 1214.01Z" fill="white"/>
<path d="M630.5 1034.87C853.829 1034.87 1034.87 853.829 1034.87 630.5C1034.87 407.171 853.829 226.128 630.5 226.128C407.171 226.128 226.128 407.171 226.128 630.5C226.128 853.829 407.171 1034.87 630.5 1034.87Z" fill="#C7AA58"/>
<path fill-rule="evenodd" clip-rule="evenodd" d="M906.179 358.302C964.185 424.655 999.884 511.007 999.884 606.417C999.884 716.07 953.529 813.931 878.793 882.913C896.234 846.255 906.179 806.436 906.179 763.278V358.266V358.302Z" fill="white"/>
<path fill-rule="evenodd" clip-rule="evenodd" d="M367.715 340.008V754.362C358.621 891.971 493.033 1013.17 636.467 1013.17C657.176 1013.17 677.175 1011.5 697.031 1006.49C673.871 1013.17 650.64 1017.29 625.705 1016.47C487.137 1011.5 381.852 935.946 320.436 834.64C224.209 677.033 235.008 471.969 367.715 340.008Z" fill="white"/>
<path fill-rule="evenodd" clip-rule="evenodd" d="M796.525 823.948C777.451 884.476 736.069 930.263 644.033 931.009C539.495 931.719 478.079 850.554 478.079 752.622V551.643L796.49 823.984L796.525 823.948Z" fill="white"/>
<path fill-rule="evenodd" clip-rule="evenodd" d="M455.665 507.917L769.281 776.812C781.749 787.575 793.4 798.48 806.614 808.461C815.743 815.921 824.978 823.487 834.924 829.17C857.231 843.378 878.828 827.501 879.645 802.813L886.252 396.736C886.252 379.33 870.552 365.264 853.182 365.264C835.812 365.264 821.639 380.183 821.639 396.736V719.729L450.763 381C438.366 369.385 420.073 361.89 404.266 372.688C396.06 378.513 391.052 389.347 391.052 399.293V805.229C391.052 823.522 405.971 838.405 424.229 838.405C442.487 838.405 455.7 822.705 455.7 805.229V507.988L455.665 507.917Z" fill="white"/>
<path fill-rule="evenodd" clip-rule="evenodd" d="M480.565 385.475C499.64 324.841 541.164 279.196 633.164 278.415C737.703 277.562 799.048 358.906 799.048 456.802L798.337 676.003L480.565 385.475Z" fill="white"/>
<path d="M801.925 751.236C799.936 742.143 789.102 736.921 779.014 734.648C764.805 731.771 750.597 729.107 736.388 726.762C738.626 726.194 740.189 724.88 741.113 722.82C739.23 719.623 736.602 717.243 733.227 715.715C723.388 716.248 713.939 718.628 704.81 722.82C701.72 720.511 698.843 717.882 696.107 714.934C682.929 696.463 677.672 675.967 680.301 653.34C685.558 638.634 690.815 623.893 696.107 609.116C696.64 601.763 697.173 594.375 697.67 587.022C718.344 557.114 729.924 523.937 732.41 487.528C734.47 477.404 732.872 467.92 727.686 459.111C707.616 439.574 687.085 420.641 666.092 402.277C663.677 397.659 661.581 392.935 659.769 388.068C657.745 377.377 655.116 366.862 651.884 356.49C651.351 353.826 649.752 352.263 647.159 351.766C643.962 353.364 641.867 355.993 640.837 359.652C638.812 374.499 634.585 388.743 628.191 402.277C607.766 420.073 587.768 438.508 568.196 457.548C565.248 461.313 563.152 465.54 561.873 470.193C561.731 513.884 573.844 553.881 598.176 590.219C598.496 599.277 599.561 608.228 601.337 617.073C621.478 654.157 618.6 689.146 592.635 722.074C585.424 722.5 578.568 720.901 572.103 717.349C567.379 716.284 562.619 716.284 557.895 717.349C553.668 720.511 553.668 723.672 557.895 726.833C542.372 728.752 527.098 731.913 512.108 736.318C499.072 741.148 492.998 750.348 493.957 763.953C500.351 776.137 510.616 782.175 524.754 782.104C575.442 782.424 626.344 773.011 646.342 763.953C671.776 774.823 712.305 780.541 736.353 782.104C754.007 784.129 771.377 782.531 788.462 777.38C799.936 772.229 804.411 763.562 801.889 751.308L801.925 751.236ZM667.726 522.267C675.399 516.442 679.342 508.556 679.555 498.575C680.158 484.828 675.15 473.781 664.565 465.398C662.647 458.755 658.171 454.813 651.138 453.569C643.359 451.403 636.752 453.25 631.388 459.111C631.068 461.881 630.287 464.51 629.008 466.996C624.142 470.016 620.732 474.243 618.742 479.642C611.354 495.946 613.983 510.155 626.628 522.267C633.413 532.817 633.661 543.331 627.41 553.845C624.39 555.657 621.229 555.906 617.926 554.627C607.553 546.777 600.982 536.511 598.176 523.83C595.512 511.078 592.35 498.433 588.692 485.929C587.448 480.992 587.981 476.232 590.254 471.721C605.6 454.813 620.341 437.443 634.478 419.611C639.558 412.187 643.501 404.302 646.307 395.919C650.996 405.296 656.537 414.247 662.895 422.773C677.494 439.858 691.703 457.228 705.521 474.882C704.171 496.657 699.446 517.721 691.312 538.039C687.014 548.695 679.377 554.236 668.401 554.627C660.267 544.148 659.983 533.35 667.62 522.267H667.726Z" fill="#647A4C"/>
</svg>
